<svg xmlns="http://www.w3.org/2000/svg" xmlns:xlink="http://www.w3.org/1999/xlink" width="104" height="58" viewBox="0 0 104 58">
    <defs>
        <path id="a" d="M.425.476h15.792v32.791H.425z"/>
        <path id="c" d="M.161.433H19.7v20.549H.16z"/>
        <path id="e" d="M.46.135h45.737v16.732H.46z"/>
    </defs>
    <g fill="none" fill-rule="evenodd">
        <path fill="#E8222E" d="M5.736 5L4.717 9.788H9.98L11 5zM4.207 12.155L0 32h5.263L9.47 12.155z"/>
        <g transform="translate(7 4)">
            <mask id="b" fill="#fff">
                <use xlink:href="#a"/>
            </mask>
            <path fill="#E8222E" d="M16.217.583L15.31 4.71c-.278-.036-.755-.063-1.432-.081-.677-.017-1.182.13-1.514.445-.333.315-.535.66-.608 1.04l-.362 1.638h3.39l-.78 3.576h-3.39l-5.04 21.938H.424l5.04-21.938H2.583l.78-3.576H6.19l.27-1.245C6.91 4.432 7.575 3.002 8.457 2.22 9.46 1.057 11.394.476 14.26.476c.326 0 .62.009.88.027.259.018.618.044 1.078.08" mask="url(#b)"/>
        </g>
        <path fill="#E8222E" d="M40.753 20.907l.78-3.612h2.756l1.178-5.408h5.113l-1.178 5.408h3.21l-.78 3.612h-3.21l-2.23 10.248c-.17.795-.172 1.29-.01 1.486.164.195.771.294 1.823.294a14.527 14.527 0 0 0 1.034-.037l-.834 3.79-2.466.09c-2.454.082-4.032-.333-4.733-1.246-.447-.581-.544-1.477-.29-2.687l2.593-11.938h-2.756zM86.273 11.148l-1.124 5.195a13.219 13.219 0 0 0-1.47-.09c-2.078 0-3.62.665-4.623 1.993-.556.748-1.004 1.899-1.342 3.452l-1.994 9.27h-5.203l4.188-19.393h4.932l-.726 3.38c1.076-1.293 1.959-2.176 2.648-2.65 1.148-.795 2.496-1.193 4.042-1.193.098 0 .179.003.246.01.066.005.208.014.426.026"/>
        <g transform="translate(83.74 10.627)">
            <mask id="d" fill="#fff">
                <use xlink:href="#c"/>
            </mask>
            <path fill="#E8222E" d="M6.346 8.705h8.032c.205-1.34.009-2.357-.59-3.05-.598-.695-1.447-1.042-2.547-1.042-1.197 0-2.203.368-3.02 1.103-.815.736-1.44 1.732-1.875 2.99m12.691-4.502c.532 1.15.744 2.485.635 4.003-.048.89-.266 2.17-.653 3.844H5.494c-.352 1.945-.026 3.309.979 4.092.603.485 1.407.729 2.41.729 1.065 0 1.995-.297 2.793-.89.423-.32.84-.765 1.252-1.334h5.276c-.388 1.15-1.252 2.32-2.594 3.504-2.103 1.887-4.678 2.83-7.723 2.83-2.515 0-4.56-.795-6.138-2.384C.172 17.008-.23 14.423.543 10.84c.725-3.357 2.149-5.931 4.27-7.722C6.934 1.328 9.38.433 12.148.433c1.643 0 3.06.302 4.252.907 1.19.605 2.07 1.56 2.637 2.864" mask="url(#d)"/>
        </g>
        <path fill="#E8222E" d="M23.432 11.756l-2.415 11.118c-.792 5.22 2.758 8.735 7.674 8.735s8.685-3.327 10.13-8.735l2.453-11.118H23.432zM55.137 11.756l-2.415 11.118c-.792 5.22 2.758 8.735 7.674 8.735s8.685-3.327 10.13-8.735l2.453-11.118H55.137z"/>
        <g transform="translate(21.12 37.133)">
            <mask id="f" fill="#fff">
                <use xlink:href="#e"/>
            </mask>
            <path fill="#E8222E" d="M.46.135s11.818 21.235 35.3 3.464L31.156.135h15.041l-2.686 15.964-3.3-5.573s-4.604 4.026-11.664 5.594C18.81 18.283 5.264 16.547.46.135" mask="url(#f)"/>
        </g>
    </g>
</svg>
