<svg xmlns="http://www.w3.org/2000/svg" xmlns:xlink="http://www.w3.org/1999/xlink" width="126" height="65" viewBox="0 0 126 65">
    <defs>
        <path id="a" d="M.512.58h19.049v40.006H.512z"/>
        <path id="c" d="M.194.528h23.567v25.07H.194z"/>
        <path id="e" d="M.554.164h55.168v20.414H.554z"/>
    </defs>
    <g fill="none" fill-rule="evenodd">
        <path fill="#FEFEFE" d="M6.78 2L5.574 7.675h6.219L13 2H6.78zm-1.808 8.48L0 34h6.22l4.971-23.52H4.972z"/>
        <g transform="translate(9 1)">
            <mask id="b" fill="#fff">
                <use xlink:href="#a"/>
            </mask>
            <path fill="#FEFEFE" d="M19.56.711l-1.093 5.036c-.335-.043-.91-.076-1.727-.099-.817-.02-1.426.16-1.827.544-.4.383-.645.806-.733 1.269l-.437 1.997h4.09l-.94 4.364h-4.09l-6.08 26.764H.513l6.079-26.764H3.114l.94-4.364h3.413l.327-1.519c.54-2.532 1.342-4.276 2.406-5.231C11.41 1.29 13.743.58 17.2.58c.394 0 .747.011 1.06.033.313.022.747.054 1.302.098" mask="url(#b)"/>
        </g>
        <path fill="#FEFEFE" d="M49.713 21.626l.94-4.406h3.324l1.422-6.598h6.167l-1.422 6.598h3.871l-.94 4.406h-3.87l-2.69 12.503c-.205.97-.209 1.574-.012 1.813.197.238.93.358 2.198.358a17.324 17.324 0 0 0 1.247-.044l-1.006 4.624-2.974.108c-2.96.101-4.863-.405-5.709-1.52-.539-.708-.656-1.8-.35-3.277l3.128-14.565h-3.324zM104.618 9.72l-1.356 6.338a15.767 15.767 0 0 0-1.772-.109c-2.507 0-4.367.811-5.577 2.432-.67.912-1.21 2.315-1.619 4.21l-2.405 11.31h-6.276l5.051-23.66h5.95l-.876 4.124c1.298-1.577 2.363-2.655 3.193-3.234 1.386-.97 3.011-1.454 4.877-1.454.117 0 .215.003.296.01.08.008.25.018.514.033"/>
        <g transform="translate(101.563 9.084)">
            <mask id="d" fill="#fff">
                <use xlink:href="#c"/>
            </mask>
            <path fill="#FEFEFE" d="M7.654 10.62h9.688c.247-1.635.011-2.875-.71-3.722-.722-.846-1.747-1.27-3.073-1.27-1.444 0-2.657.449-3.642 1.346-.984.897-1.739 2.113-2.263 3.647m15.309-5.492c.64 1.404.896 3.032.765 4.884-.058 1.085-.32 2.648-.787 4.689H6.626c-.423 2.373-.03 4.037 1.181 4.992.728.593 1.698.89 2.908.89 1.284 0 2.406-.362 3.369-1.086.51-.39 1.013-.933 1.509-1.627h6.364c-.467 1.403-1.51 2.83-3.128 4.275-2.537 2.301-5.643 3.452-9.316 3.452-3.033 0-5.5-.97-7.403-2.909C.207 20.75-.278 17.596.655 13.226 1.53 9.13 3.247 5.99 5.805 3.805 8.366 1.62 11.314.528 14.654.528c1.982 0 3.691.369 5.128 1.107 1.435.737 2.497 1.902 3.182 3.494" mask="url(#d)"/>
        </g>
        <path fill="#FEFEFE" d="M28.82 10.463l-2.913 13.563c-.956 6.368 3.327 10.657 9.257 10.657s10.475-4.06 12.218-10.657l2.958-13.563H28.82zM67.063 10.463l-2.914 13.563c-.956 6.368 3.327 10.657 9.257 10.657s10.475-4.06 12.218-10.657l2.958-13.563h-21.52z"/>
        <g transform="translate(26.032 41.422)">
            <mask id="f" fill="#fff">
                <use xlink:href="#e"/>
            </mask>
            <path fill="#FEFEFE" d="M.554.164S14.81 26.071 43.134 4.39L37.58.164h18.142l-3.24 19.476-3.98-6.798s-5.554 4.912-14.07 6.825C22.69 22.305 6.35 20.187.555.164" mask="url(#f)"/>
        </g>
    </g>
</svg>
