<svg width="642" height="191" viewBox="0 0 642 191" fill="none" xmlns="http://www.w3.org/2000/svg">
<g clip-path="url(#clip0_15_7)">
<path d="M319.16 131.045H346.638L363.426 48.9038H384.032L387.071 33.6225H366.86L367.626 30.1846C368.769 23.7049 371.059 16.4297 381.361 16.4297C387.473 16.4297 393.194 16.8112 398.915 19.4859L401.971 3.44145C395.596 1.1893 388.887 0.0259475 382.127 7.62939e-06C359.992 7.62939e-06 344.732 12.9918 339.004 33.6225H329.465L326.413 48.9038H335.952L319.16 131.045Z" fill="#E8222E"/>
<path d="M406.167 111.181C438.603 111.181 461.119 81.7594 461.119 57.6909C461.119 39.735 444.708 32.0925 428.683 32.0925C393.183 32.0925 373.731 63.8215 373.731 85.5825C373.731 103.538 390.522 111.181 406.167 111.181ZM493.181 111.181C525.617 111.181 548.133 81.7594 548.133 57.6909C548.133 39.735 531.341 32.0925 515.312 32.0925C479.823 32.0925 460.364 63.8035 460.364 85.5825C460.364 103.538 477.536 111.181 493.181 111.181ZM592.78 109.651H619.873L642 1.54433H614.526L608.036 33.6368L596.587 32.4921C569.876 32.4921 545.454 66.8741 545.454 91.3278C545.454 101.26 551.926 111.195 563.008 111.195C578.652 111.195 589.72 103.553 594.29 95.9104H595.814L592.78 109.651ZM508.056 166.579C486.73 184.269 459.339 192.907 431.735 190.647C395.481 188.354 369.531 160.463 364.954 131.045H366.479C374.874 149.404 395.1 166.579 419.906 169.25C445.075 172.306 475.239 160.848 491.646 145.181L473.33 131.045H528.663L516.437 189.884L508.423 166.96L508.056 166.579Z" fill="#E8222E"/>
</g>
<path d="M0.859375 110L23.3447 2.62695H44.292L21.8799 110H0.859375Z" fill="#E8222E"/>
<path d="M76.917 54.2627L56.4092 52.5049C58.7529 45.5713 62.8301 40.1514 68.6406 36.2451C74.5 32.3389 82.2393 30.3857 91.8584 30.3857C101.868 30.3857 109.266 32.4121 114.051 36.4648C118.836 40.4688 121.229 45.376 121.229 51.1865C121.229 53.5303 121.009 56.0205 120.569 58.6572C120.179 61.2939 118.738 68.2275 116.248 79.458C114.197 88.7354 113.172 95.2295 113.172 98.9404C113.172 102.261 113.758 105.947 114.93 110H94.4951C93.665 107.168 93.1523 104.238 92.957 101.211C89.8809 104.629 86.3408 107.266 82.3369 109.121C78.333 110.928 74.3047 111.831 70.252 111.831C63.8066 111.831 58.4844 109.731 54.2852 105.532C50.0859 101.284 47.9863 95.8398 47.9863 89.1992C47.9863 81.7773 50.2812 75.8447 54.8711 71.4014C59.5098 66.958 67.7617 64.2725 79.627 63.3447C89.6367 62.5146 96.3262 61.5137 99.6953 60.3418C100.574 57.4121 101.014 55.0684 101.014 53.3105C101.014 51.0645 100.11 49.1846 98.3037 47.6709C96.4971 46.1572 93.8115 45.4004 90.2471 45.4004C86.4873 45.4004 83.5088 46.1816 81.3115 47.7441C79.1631 49.2578 77.6982 51.4307 76.917 54.2627ZM96.9121 73.7451C95.6426 74.0869 93.958 74.4043 91.8584 74.6973C81.3115 75.9668 74.4268 77.8223 71.2041 80.2637C68.9092 82.0215 67.7617 84.3896 67.7617 87.3682C67.7617 89.8096 68.6406 91.8848 70.3984 93.5938C72.1562 95.2539 74.4756 96.084 77.3564 96.084C80.5303 96.084 83.5088 95.3271 86.292 93.8135C89.124 92.251 91.2236 90.2734 92.5908 87.8809C94.0068 85.4395 95.252 81.6553 96.3262 76.5283L96.9121 73.7451Z" fill="#E8222E"/>
<path d="M134.664 110L157.076 2.62695H178.17L170.626 38.5156C174.483 35.5859 178.072 33.5107 181.393 32.29C184.762 31.0205 188.424 30.3857 192.379 30.3857C200.582 30.3857 207.149 33.1445 212.081 38.6621C217.013 44.1309 219.479 52.1143 219.479 62.6123C219.479 69.6924 218.307 76.5771 215.963 83.2666C213.668 89.9072 210.567 95.3271 206.661 99.5264C202.804 103.677 198.727 106.777 194.43 108.828C190.182 110.83 185.714 111.831 181.026 111.831C169.894 111.831 161.715 106.948 156.49 97.1826L153.78 110H134.664ZM163.009 78.2861C163.009 83.5107 164.474 87.7588 167.403 91.0303C170.382 94.3018 173.873 95.9375 177.877 95.9375C181.393 95.9375 184.737 94.668 187.911 92.1289C191.134 89.5898 193.795 85.5371 195.895 79.9707C198.043 74.4043 199.117 68.7891 199.117 63.125C199.117 57.6074 197.677 53.2861 194.796 50.1611C191.964 46.9873 188.521 45.4004 184.469 45.4004C179.195 45.4004 174.654 47.8418 170.846 52.7246C165.621 59.4141 163.009 67.9346 163.009 78.2861Z" fill="#E8222E"/>
<path d="M307.182 77.627H254.447C254.398 78.457 254.374 79.0918 254.374 79.5312C254.374 84.707 255.839 88.8818 258.769 92.0557C261.747 95.2295 265.36 96.8164 269.608 96.8164C276.591 96.8164 282.035 93.2031 285.941 85.9766L304.765 89.126C301.103 96.6943 296.195 102.383 290.043 106.191C283.939 109.951 277.079 111.831 269.462 111.831C259.013 111.831 250.517 108.535 243.974 101.943C237.431 95.3027 234.159 86.5381 234.159 75.6494C234.159 65.0049 237.113 55.5322 243.021 47.2314C251.078 36.001 262.577 30.3857 277.519 30.3857C287.04 30.3857 294.608 33.3398 300.224 39.248C305.839 45.1074 308.646 53.335 308.646 63.9307C308.646 69.0088 308.158 73.5742 307.182 77.627ZM289.457 64.8096C289.506 63.8818 289.53 63.1738 289.53 62.6855C289.53 56.9238 288.236 52.6025 285.648 49.7217C283.061 46.8408 279.594 45.4004 275.248 45.4004C270.902 45.4004 266.996 47.0361 263.529 50.3076C260.111 53.5791 257.792 58.4131 256.571 64.8096H289.457Z" fill="#E8222E"/>
<path d="M7.85938 110L30.3447 2.62695H51.292L28.8799 110H7.85938Z" fill="#E8222E"/>
<path d="M83.917 54.2627L63.4092 52.5049C65.7529 45.5713 69.8301 40.1514 75.6406 36.2451C81.5 32.3389 89.2393 30.3857 98.8584 30.3857C108.868 30.3857 116.266 32.4121 121.051 36.4648C125.836 40.4688 128.229 45.376 128.229 51.1865C128.229 53.5303 128.009 56.0205 127.569 58.6572C127.179 61.2939 125.738 68.2275 123.248 79.458C121.197 88.7354 120.172 95.2295 120.172 98.9404C120.172 102.261 120.758 105.947 121.93 110H101.495C100.665 107.168 100.152 104.238 99.957 101.211C96.8809 104.629 93.3408 107.266 89.3369 109.121C85.333 110.928 81.3047 111.831 77.252 111.831C70.8066 111.831 65.4844 109.731 61.2852 105.532C57.0859 101.284 54.9863 95.8398 54.9863 89.1992C54.9863 81.7773 57.2812 75.8447 61.8711 71.4014C66.5098 66.958 74.7617 64.2725 86.627 63.3447C96.6367 62.5146 103.326 61.5137 106.695 60.3418C107.574 57.4121 108.014 55.0684 108.014 53.3105C108.014 51.0645 107.11 49.1846 105.304 47.6709C103.497 46.1572 100.812 45.4004 97.2471 45.4004C93.4873 45.4004 90.5088 46.1816 88.3115 47.7441C86.1631 49.2578 84.6982 51.4307 83.917 54.2627ZM103.912 73.7451C102.643 74.0869 100.958 74.4043 98.8584 74.6973C88.3115 75.9668 81.4268 77.8223 78.2041 80.2637C75.9092 82.0215 74.7617 84.3896 74.7617 87.3682C74.7617 89.8096 75.6406 91.8848 77.3984 93.5938C79.1562 95.2539 81.4756 96.084 84.3564 96.084C87.5303 96.084 90.5088 95.3271 93.292 93.8135C96.124 92.251 98.2236 90.2734 99.5908 87.8809C101.007 85.4395 102.252 81.6553 103.326 76.5283L103.912 73.7451Z" fill="#E8222E"/>
<path d="M141.664 110L164.076 2.62695H185.17L177.626 38.5156C181.483 35.5859 185.072 33.5107 188.393 32.29C191.762 31.0205 195.424 30.3857 199.379 30.3857C207.582 30.3857 214.149 33.1445 219.081 38.6621C224.013 44.1309 226.479 52.1143 226.479 62.6123C226.479 69.6924 225.307 76.5771 222.963 83.2666C220.668 89.9072 217.567 95.3271 213.661 99.5264C209.804 103.677 205.727 106.777 201.43 108.828C197.182 110.83 192.714 111.831 188.026 111.831C176.894 111.831 168.715 106.948 163.49 97.1826L160.78 110H141.664ZM170.009 78.2861C170.009 83.5107 171.474 87.7588 174.403 91.0303C177.382 94.3018 180.873 95.9375 184.877 95.9375C188.393 95.9375 191.737 94.668 194.911 92.1289C198.134 89.5898 200.795 85.5371 202.895 79.9707C205.043 74.4043 206.117 68.7891 206.117 63.125C206.117 57.6074 204.677 53.2861 201.796 50.1611C198.964 46.9873 195.521 45.4004 191.469 45.4004C186.195 45.4004 181.654 47.8418 177.846 52.7246C172.621 59.4141 170.009 67.9346 170.009 78.2861Z" fill="#E8222E"/>
<defs>
<clipPath id="clip0_15_7">
<rect width="361" height="191" fill="white" transform="translate(281)"/>
</clipPath>
</defs>
</svg>
