<svg width="126" height="65" viewBox="0 0 126 65" fill="none" xmlns="http://www.w3.org/2000/svg">
<path fill-rule="evenodd" clip-rule="evenodd" d="M6.78 2L5.574 7.675H11.793L13 2H6.78ZM4.972 10.48L0 34H6.22L11.191 10.48H4.972Z" fill="white"/>
<mask id="mask0_17_3" style="mask-type:alpha" maskUnits="userSpaceOnUse" x="9" y="1" width="20" height="41">
<path d="M9.51199 1.58H28.561V41.586H9.51199V1.58Z" fill="white"/>
</mask>
<g mask="url(#mask0_17_3)">
<path fill-rule="evenodd" clip-rule="evenodd" d="M28.56 1.711L27.467 6.747C27.132 6.704 26.557 6.671 25.74 6.648C24.923 6.628 24.314 6.808 23.913 7.192C23.513 7.575 23.268 7.998 23.18 8.461L22.743 10.458H26.833L25.893 14.822H21.803L15.723 41.586H9.51297L15.592 14.822H12.114L13.054 10.458H16.467L16.794 8.939C17.334 6.407 18.136 4.663 19.2 3.708C20.41 2.29 22.743 1.58 26.2 1.58C26.594 1.58 26.947 1.591 27.26 1.613C27.573 1.635 28.007 1.667 28.562 1.711" fill="white"/>
</g>
<path fill-rule="evenodd" clip-rule="evenodd" d="M49.713 21.626L50.653 17.22H53.977L55.399 10.622H61.566L60.144 17.22H64.015L63.075 21.626H59.205L56.515 34.129C56.31 35.099 56.306 35.703 56.503 35.942C56.7 36.18 57.433 36.3 58.701 36.3C59.1171 36.3003 59.533 36.2856 59.948 36.256L58.942 40.88L55.968 40.988C53.008 41.089 51.105 40.583 50.259 39.468C49.72 38.76 49.603 37.668 49.909 36.191L53.037 21.626H49.713V21.626ZM104.618 9.72L103.262 16.058C102.674 15.9884 102.082 15.952 101.49 15.949C98.983 15.949 97.123 16.76 95.913 18.381C95.243 19.293 94.703 20.696 94.294 22.591L91.889 33.901H85.613L90.664 10.241H96.614L95.738 14.365C97.036 12.788 98.101 11.71 98.931 11.131C100.317 10.161 101.942 9.677 103.808 9.677C103.925 9.677 104.023 9.68 104.104 9.687C104.184 9.695 104.354 9.705 104.618 9.72Z" fill="white"/>
<mask id="mask1_17_3" style="mask-type:alpha" maskUnits="userSpaceOnUse" x="101" y="9" width="25" height="26">
<path d="M101.757 9.612H125.324V34.682H101.757V9.612Z" fill="white"/>
</mask>
<g mask="url(#mask1_17_3)">
<path fill-rule="evenodd" clip-rule="evenodd" d="M109.217 19.704H118.905C119.152 18.069 118.916 16.829 118.195 15.982C117.473 15.136 116.448 14.712 115.122 14.712C113.678 14.712 112.465 15.161 111.48 16.058C110.496 16.955 109.741 18.171 109.217 19.705M124.526 14.213C125.166 15.617 125.422 17.245 125.291 19.097C125.233 20.182 124.971 21.745 124.504 23.786H108.189C107.766 26.159 108.159 27.823 109.37 28.778C110.098 29.371 111.068 29.668 112.278 29.668C113.562 29.668 114.684 29.306 115.647 28.582C116.157 28.192 116.66 27.649 117.156 26.955H123.52C123.053 28.358 122.01 29.785 120.392 31.23C117.855 33.531 114.749 34.682 111.076 34.682C108.043 34.682 105.576 33.712 103.673 31.773C101.77 29.834 101.285 26.68 102.218 22.31C103.093 18.214 104.81 15.074 107.368 12.889C109.929 10.704 112.877 9.612 116.217 9.612C118.199 9.612 119.908 9.981 121.345 10.719C122.78 11.456 123.842 12.621 124.527 14.213" fill="white"/>
</g>
<path fill-rule="evenodd" clip-rule="evenodd" d="M28.82 10.463L25.907 24.026C24.951 30.394 29.234 34.683 35.164 34.683C41.094 34.683 45.639 30.623 47.382 24.026L50.34 10.463H28.82Z" fill="white"/>
<path d="M64.149 24.026H85.624L85.1306 25.5418H63.7631L64.149 24.026Z" fill="white"/>
<path fill-rule="evenodd" clip-rule="evenodd" d="M26.586 41.586C26.586 41.586 40.4103 65.5489 68.7343 43.8679L63.1803 39.6419H81.3223L78.0823 59.1179L74.1023 52.3199C74.1023 52.3199 68.5483 57.2319 60.0323 59.1449C48.2903 61.7829 32.382 61.609 26.587 41.586" fill="white"/>
</svg>
